<svg xmlns="http://www.w3.org/2000/svg" viewBox="0 0 400 400"><path d="M69.1 2.4c.1 1.1.3 2.1.4 3.2.2 1.2.3 2.3.5 3.5-.4-3.2 0-.2.1.5.1 1.1.3 2.2.4 3.3 1.4 10.3 2.7 20.7 3.9 31 3.7 30.2 7 60.5 9.6 90.9 2.6 31.2 4.5 62.4 2.4 93.6-2.5 36.9-8.8 73.4-16.8 109.4-4.4 20.1-9.3 40.2-15.2 59.9-3.3 11.1 14 15.9 17.4 4.8 15.4-51.6 26.2-105.5 31.3-159 6.1-63.5-2.1-127.9-9.7-191-2.2-18.3-4.5-36.6-7-54.9-.7-4.8-6.8-7.5-11.1-6.3-5.1 1.4-6.9 6.3-6.2 11.1zm232-2.4c-4.2 49.1-7.5 98.4-9.5 147.6-1.3 31.9-1.8 63.6.7 95.5 2.6 33.9 7 67.8 12 101.4 2.8 19.3 5.9 38.7 9.3 57.9.9 4.8 6.7 7.5 11.1 6.3 5-1.4 7.2-6.3 6.3-11.1-8.5-47.3-15.4-95.2-19.7-143.1-5.9-65.3-1-131 3.5-196.2 1.3-19.5 2.8-38.9 4.4-58.4.4-4.8-4.4-9-9-9-5.4.1-8.7 4.2-9.1 9.1z"/><path d="M96.4 209h203c11.6 0 11.6-18 0-18h-203c-11.6 0-11.6 18 0 18z"/><path d="M209 278.9V.1c0-11.6-18-11.6-18 0v278.8c0 11.6 18 11.6 18 0z"/><path d="M136.8 247.2c-2.3 16.3-3.5 33-3.1 49.4.3 11.2 1.2 23 5.9 33.3 4.3 9.5 13 14.5 22.6 17.6 11.9 3.8 24.8 4.9 37.3 5 12.2.1 24.9-.9 36.7-4.1 8.7-2.3 17.1-6.1 21.1-14.6 4.4-9.3 5.5-19.9 6.2-30 1.3-18 .8-36.3-.7-54.3-.4-4.8-3.8-9-9-9-4.6 0-9.4 4.1-9 9 1.1 13.4 1.6 26.8 1.3 40.2-.2 9.7-.7 19.4-2.4 27.7-.4 2-.9 3.9-1.5 5.8-.1.4-1 2.7-.5 1.6.4-1.1-.6 1.2-.8 1.5-.5 1-.7 1.9 0 .3-.1.3-1.7 1.8-.5.7s-.6.4-1.1.6c-.8.5-1.7.9-2.5 1.3 1.8-.8-1.2.4-1.6.5-1 .3-2 .6-2.9.9-2.3.7-4.7 1.2-7.1 1.6-5.1 1-9.9 1.4-15.4 1.8-11 .6-22.6.3-33.1-1.7-2.6-.5-5.2-1.1-7.7-1.8-1.1-.3-2.2-.7-3.3-1-1.7-.6-1.2-.4-2.1-.8-1.7-.8-3.4-1.7-5-2.8 1.5 1.1-.3-.4-.7-.7-1.3-1.1.3 1.1-.8-1-.4-.7-.8-1.4-1.2-2.2-.9-1.8.1.4-.4-1.1-.7-2.1-1.3-4.1-1.7-6.3-1-4.8-1.3-8.1-1.7-13.5-.7-11.4-.2-22.9.7-34.2.3-4.1.7-8.2 1.2-12.3.1-1.2.3-2.4.4-3.6.3-2.3 0 0-.1.7.7-4.8-1.2-9.7-6.3-11.1-4.4-.8-10.6 1.8-11.2 6.6z"/><path d="M142.9 287.9h102.5c11.6 0 11.6-18 0-18H142.9c-11.6 0-11.6 18 0 18zM92 139.9h208.9c11.6 0 11.6-18 0-18H92c-11.5 0-11.6 18 0 18zm108-65.1h103.6c11.6 0 11.6-18 0-18H200c-11.6 0-11.6 18 0 18z"/></svg>